solid 
   facet normal 0.000000e+000 -0.000000e+000 -1.000000e+000
      outer loop
         vertex 1.750000e+000 0.000000e+000 0.000000e+000
         vertex 3.460908e+000 5.216479e-001 0.000000e+000
         vertex 3.500000e+000 0.000000e+000 0.000000e+000
      endloop
   endfacet
   facet normal 0.000000e+000 -0.000000e+000 -1.000000e+000
      outer loop
         vertex 1.588257e+000 7.348059e-001 0.000000e+000
         vertex 3.153391e+000 1.518593e+000 0.000000e+000
         vertex 3.344505e+000 1.031643e+000 0.000000e+000
      endloop
   endfacet
   facet normal 0.000000e+000 -0.000000e+000 -1.000000e+000
      outer loop
         vertex 1.750000e+000 1.750000e+000 0.000000e+000
         vertex 2.565681e+000 2.380605e+000 0.000000e+000
         vertex 2.891836e+000 1.971620e+000 0.000000e+000
      endloop
   endfacet
   facet normal 0.000000e+000 0.000000e+000 -1.000000e+000
      outer loop
         vertex 1.750000e+000 1.750000e+000 0.000000e+000
         vertex 1.750000e+000 3.031089e+000 0.000000e+000
         vertex 2.182214e+000 2.736410e+000 0.000000e+000
      endloop
   endfacet
   facet normal 0.000000e+000 0.000000e+000 -1.000000e+000
      outer loop
         vertex -1.750000e+000 1.750000e+000 0.000000e+000
         vertex -1.750000e+000 3.031089e+000 0.000000e+000
         vertex -1.278694e+000 3.258058e+000 0.000000e+000
      endloop
   endfacet
   facet normal 0.000000e+000 0.000000e+000 -1.000000e+000
      outer loop
         vertex -1.750000e+000 1.750000e+000 0.000000e+000
         vertex -2.565681e+000 2.380605e+000 0.000000e+000
         vertex -2.182214e+000 2.736410e+000 0.000000e+000
      endloop
   endfacet
   facet normal 0.000000e+000 0.000000e+000 -1.000000e+000
      outer loop
         vertex -1.750000e+000 1.750000e+000 0.000000e+000
         vertex -3.153391e+000 1.518593e+000 0.000000e+000
         vertex -2.891836e+000 1.971620e+000 0.000000e+000
      endloop
   endfacet
   facet normal 0.000000e+000 0.000000e+000 -1.000000e+000
      outer loop
         vertex -1.750000e+000 -1.750000e+000 0.000000e+000
         vertex -2.891836e+000 -1.971620e+000 0.000000e+000
         vertex -3.153391e+000 -1.518593e+000 0.000000e+000
      endloop
   endfacet
   facet normal 0.000000e+000 0.000000e+000 -1.000000e+000
      outer loop
         vertex -1.750000e+000 -1.750000e+000 0.000000e+000
         vertex -2.182214e+000 -2.736410e+000 0.000000e+000
         vertex -2.565681e+000 -2.380605e+000 0.000000e+000
      endloop
   endfacet
   facet normal 0.000000e+000 0.000000e+000 -1.000000e+000
      outer loop
         vertex -1.750000e+000 -1.750000e+000 0.000000e+000
         vertex -1.278694e+000 -3.258058e+000 0.000000e+000
         vertex -1.750000e+000 -3.031089e+000 0.000000e+000
      endloop
   endfacet
   facet normal -0.000000e+000 0.000000e+000 -1.000000e+000
      outer loop
         vertex 1.750000e+000 -1.750000e+000 0.000000e+000
         vertex 1.750000e+000 -3.031089e+000 0.000000e+000
         vertex 1.278694e+000 -3.258058e+000 0.000000e+000
      endloop
   endfacet
   facet normal -0.000000e+000 0.000000e+000 -1.000000e+000
      outer loop
         vertex 1.750000e+000 -1.750000e+000 0.000000e+000
         vertex 2.565681e+000 -2.380605e+000 0.000000e+000
         vertex 2.182214e+000 -2.736410e+000 0.000000e+000
      endloop
   endfacet
   facet normal 0.000000e+000 0.000000e+000 -1.000000e+000
      outer loop
         vertex 1.750000e+000 -1.750000e+000 0.000000e+000
         vertex 3.153391e+000 -1.518593e+000 0.000000e+000
         vertex 2.891836e+000 -1.971620e+000 0.000000e+000
      endloop
   endfacet
   facet normal -0.000000e+000 0.000000e+000 -1.000000e+000
      outer loop
         vertex 1.709086e+000 -3.761983e-001 0.000000e+000
         vertex 3.460908e+000 -5.216479e-001 0.000000e+000
         vertex 3.344505e+000 -1.031643e+000 0.000000e+000
      endloop
   endfacet
   facet normal 0.000000e+000 0.000000e+000 -1.000000e+000
      outer loop
         vertex 3.460908e+000 -5.216479e-001 0.000000e+000
         vertex 1.709086e+000 -3.761983e-001 0.000000e+000
         vertex 1.750000e+000 0.000000e+000 0.000000e+000
      endloop
   endfacet
   facet normal 0.000000e+000 0.000000e+000 -1.000000e+000
      outer loop
         vertex 1.750000e+000 -1.750000e+000 0.000000e+000
         vertex 1.393163e+000 -1.059055e+000 0.000000e+000
         vertex 1.588257e+000 -7.348059e-001 0.000000e+000
      endloop
   endfacet
   facet normal 0.000000e+000 0.000000e+000 -1.000000e+000
      outer loop
         vertex 1.750000e+000 -1.750000e+000 0.000000e+000
         vertex 8.197148e-001 -1.546146e+000 0.000000e+000
         vertex 1.132926e+000 -1.333784e+000 0.000000e+000
      endloop
   endfacet
   facet normal 0.000000e+000 -0.000000e+000 -1.000000e+000
      outer loop
         vertex -1.750000e+000 -1.750000e+000 0.000000e+000
         vertex -9.820774e-001 -1.448456e+000 0.000000e+000
         vertex -6.477418e-001 -1.625709e+000 0.000000e+000
      endloop
   endfacet
   facet normal 0.000000e+000 -0.000000e+000 -1.000000e+000
      outer loop
         vertex -1.750000e+000 -1.750000e+000 0.000000e+000
         vertex -1.499500e+000 -9.022192e-001 0.000000e+000
         vertex -1.270492e+000 -1.203474e+000 0.000000e+000
      endloop
   endfacet
   facet normal -0.000000e+000 0.000000e+000 -1.000000e+000
      outer loop
         vertex -1.750000e+000 1.750000e+000 0.000000e+000
         vertex -1.499500e+000 9.022192e-001 0.000000e+000
         vertex -1.658393e+000 5.587777e-001 0.000000e+000
      endloop
   endfacet
   facet normal -0.000000e+000 0.000000e+000 -1.000000e+000
      outer loop
         vertex -1.750000e+000 1.750000e+000 0.000000e+000
         vertex -9.820774e-001 1.448456e+000 0.000000e+000
         vertex -1.270492e+000 1.203474e+000 0.000000e+000
      endloop
   endfacet
   facet normal 0.000000e+000 0.000000e+000 -1.000000e+000
      outer loop
         vertex 1.750000e+000 1.750000e+000 0.000000e+000
         vertex 1.132926e+000 1.333784e+000 0.000000e+000
         vertex 8.197148e-001 1.546146e+000 0.000000e+000
      endloop
   endfacet
   facet normal 0.000000e+000 0.000000e+000 -1.000000e+000
      outer loop
         vertex 1.750000e+000 1.750000e+000 0.000000e+000
         vertex 1.588257e+000 7.348059e-001 0.000000e+000
         vertex 1.393163e+000 1.059055e+000 0.000000e+000
      endloop
   endfacet
   facet normal 0.000000e+000 0.000000e+000 -1.000000e+000
      outer loop
         vertex 3.460908e+000 5.216479e-001 0.000000e+000
         vertex 1.750000e+000 0.000000e+000 0.000000e+000
         vertex 1.709086e+000 3.761983e-001 0.000000e+000
      endloop
   endfacet
   facet normal 0.000000e+000 -0.000000e+000 -1.000000e+000
      outer loop
         vertex -3.500000e+000 -1.902842e-015 0.000000e+000
         vertex -1.750000e+000 1.750000e+000 0.000000e+000
         vertex -1.750000e+000 -1.750000e+000 0.000000e+000
      endloop
   endfacet
   facet normal 0.000000e+000 0.000000e+000 -1.000000e+000
      outer loop
         vertex 9.474309e-002 1.747433e+000 0.000000e+000
         vertex -1.750000e+000 1.750000e+000 0.000000e+000
         vertex 1.750000e+000 1.750000e+000 0.000000e+000
      endloop
   endfacet
   facet normal 0.000000e+000 0.000000e+000 -1.000000e+000
      outer loop
         vertex 2.615553e-001 3.490213e+000 0.000000e+000
         vertex 1.750000e+000 1.750000e+000 0.000000e+000
         vertex -1.750000e+000 1.750000e+000 0.000000e+000
      endloop
   endfacet
   facet normal 0.000000e+000 0.000000e+000 -1.000000e+000
      outer loop
         vertex 1.709086e+000 3.761983e-001 0.000000e+000
         vertex 1.588257e+000 7.348059e-001 0.000000e+000
         vertex 3.344505e+000 1.031643e+000 0.000000e+000
      endloop
   endfacet
   facet normal -0.000000e+000 0.000000e+000 -1.000000e+000
      outer loop
         vertex 2.182214e+000 2.736410e+000 0.000000e+000
         vertex 2.565681e+000 2.380605e+000 0.000000e+000
         vertex 1.750000e+000 1.750000e+000 0.000000e+000
      endloop
   endfacet
   facet normal 0.000000e+000 -0.000000e+000 -1.000000e+000
      outer loop
         vertex -2.182214e+000 2.736410e+000 0.000000e+000
         vertex -1.750000e+000 3.031089e+000 0.000000e+000
         vertex -1.750000e+000 1.750000e+000 0.000000e+000
      endloop
   endfacet
   facet normal 0.000000e+000 0.000000e+000 -1.000000e+000
      outer loop
         vertex -2.565681e+000 -2.380605e+000 0.000000e+000
         vertex -2.891836e+000 -1.971620e+000 0.000000e+000
         vertex -1.750000e+000 -1.750000e+000 0.000000e+000
      endloop
   endfacet
   facet normal 0.000000e+000 0.000000e+000 -1.000000e+000
      outer loop
         vertex 2.182214e+000 -2.736410e+000 0.000000e+000
         vertex 1.750000e+000 -3.031089e+000 0.000000e+000
         vertex 1.750000e+000 -1.750000e+000 0.000000e+000
      endloop
   endfacet
   facet normal -0.000000e+000 0.000000e+000 -1.000000e+000
      outer loop
         vertex 1.588257e+000 -7.348059e-001 0.000000e+000
         vertex 3.153391e+000 -1.518593e+000 0.000000e+000
         vertex 1.750000e+000 -1.750000e+000 0.000000e+000
      endloop
   endfacet
   facet normal 0.000000e+000 0.000000e+000 -1.000000e+000
      outer loop
         vertex 3.500000e+000 0.000000e+000 0.000000e+000
         vertex 3.460908e+000 -5.216479e-001 0.000000e+000
         vertex 1.750000e+000 0.000000e+000 0.000000e+000
      endloop
   endfacet
   facet normal -0.000000e+000 0.000000e+000 -1.000000e+000
      outer loop
         vertex -1.270492e+000 -1.203474e+000 0.000000e+000
         vertex -9.820774e-001 -1.448456e+000 0.000000e+000
         vertex -1.750000e+000 -1.750000e+000 0.000000e+000
      endloop
   endfacet
   facet normal 0.000000e+000 0.000000e+000 -1.000000e+000
      outer loop
         vertex -1.270492e+000 1.203474e+000 0.000000e+000
         vertex -1.499500e+000 9.022192e-001 0.000000e+000
         vertex -1.750000e+000 1.750000e+000 0.000000e+000
      endloop
   endfacet
   facet normal 0.000000e+000 0.000000e+000 -1.000000e+000
      outer loop
         vertex 1.393163e+000 1.059055e+000 0.000000e+000
         vertex 1.132926e+000 1.333784e+000 0.000000e+000
         vertex 1.750000e+000 1.750000e+000 0.000000e+000
      endloop
   endfacet
   facet normal 0.000000e+000 0.000000e+000 -1.000000e+000
      outer loop
         vertex -3.460908e+000 -5.216479e-001 0.000000e+000
         vertex -3.500000e+000 -1.902842e-015 0.000000e+000
         vertex -1.750000e+000 -1.750000e+000 0.000000e+000
      endloop
   endfacet
   facet normal 0.000000e+000 0.000000e+000 -1.000000e+000
      outer loop
         vertex -2.831185e-001 1.726946e+000 0.000000e+000
         vertex -1.750000e+000 1.750000e+000 0.000000e+000
         vertex 9.474309e-002 1.747433e+000 0.000000e+000
      endloop
   endfacet
   facet normal 0.000000e+000 0.000000e+000 -1.000000e+000
      outer loop
         vertex 3.460908e+000 5.216479e-001 0.000000e+000
         vertex 1.709086e+000 3.761983e-001 0.000000e+000
         vertex 3.344505e+000 1.031643e+000 0.000000e+000
      endloop
   endfacet
   facet normal 0.000000e+000 -0.000000e+000 -1.000000e+000
      outer loop
         vertex 1.750000e+000 1.750000e+000 0.000000e+000
         vertex 2.891836e+000 1.971620e+000 0.000000e+000
         vertex 3.153391e+000 1.518593e+000 0.000000e+000
      endloop
   endfacet
   facet normal 0.000000e+000 0.000000e+000 -1.000000e+000
      outer loop
         vertex -1.750000e+000 1.750000e+000 0.000000e+000
         vertex -2.891836e+000 1.971620e+000 0.000000e+000
         vertex -2.565681e+000 2.380605e+000 0.000000e+000
      endloop
   endfacet
   facet normal 0.000000e+000 0.000000e+000 -1.000000e+000
      outer loop
         vertex -1.750000e+000 -1.750000e+000 0.000000e+000
         vertex -1.750000e+000 -3.031089e+000 0.000000e+000
         vertex -2.182214e+000 -2.736410e+000 0.000000e+000
      endloop
   endfacet
   facet normal -0.000000e+000 0.000000e+000 -1.000000e+000
      outer loop
         vertex 1.750000e+000 -1.750000e+000 0.000000e+000
         vertex 2.891836e+000 -1.971620e+000 0.000000e+000
         vertex 2.565681e+000 -2.380605e+000 0.000000e+000
      endloop
   endfacet
   facet normal 0.000000e+000 0.000000e+000 -1.000000e+000
      outer loop
         vertex 3.344505e+000 -1.031643e+000 0.000000e+000
         vertex 1.588257e+000 -7.348059e-001 0.000000e+000
         vertex 1.709086e+000 -3.761983e-001 0.000000e+000
      endloop
   endfacet
   facet normal 0.000000e+000 0.000000e+000 -1.000000e+000
      outer loop
         vertex 1.750000e+000 -1.750000e+000 0.000000e+000
         vertex 4.681746e-001 -1.686213e+000 0.000000e+000
         vertex 8.197148e-001 -1.546146e+000 0.000000e+000
      endloop
   endfacet
   facet normal 0.000000e+000 -0.000000e+000 -1.000000e+000
      outer loop
         vertex -1.750000e+000 -1.750000e+000 0.000000e+000
         vertex -1.658393e+000 -5.587777e-001 0.000000e+000
         vertex -1.499500e+000 -9.022192e-001 0.000000e+000
      endloop
   endfacet
   facet normal -0.000000e+000 0.000000e+000 -1.000000e+000
      outer loop
         vertex -1.750000e+000 1.750000e+000 0.000000e+000
         vertex -6.477418e-001 1.625709e+000 0.000000e+000
         vertex -9.820774e-001 1.448456e+000 0.000000e+000
      endloop
   endfacet
   facet normal 0.000000e+000 0.000000e+000 -1.000000e+000
      outer loop
         vertex -2.615553e-001 -3.490213e+000 0.000000e+000
         vertex -1.750000e+000 -1.750000e+000 0.000000e+000
         vertex 1.750000e+000 -1.750000e+000 0.000000e+000
      endloop
   endfacet
   facet normal 0.000000e+000 0.000000e+000 -1.000000e+000
      outer loop
         vertex -1.739741e+000 1.892083e-001 0.000000e+000
         vertex -1.750000e+000 -1.750000e+000 0.000000e+000
         vertex -1.750000e+000 1.750000e+000 0.000000e+000
      endloop
   endfacet
   facet normal -0.000000e+000 -0.000000e+000 -1.000000e+000
      outer loop
         vertex 1.278694e+000 3.258058e+000 0.000000e+000
         vertex 1.750000e+000 3.031089e+000 0.000000e+000
         vertex 1.750000e+000 1.750000e+000 0.000000e+000
      endloop
   endfacet
   facet normal 0.000000e+000 0.000000e+000 -1.000000e+000
      outer loop
         vertex -3.344505e+000 -1.031643e+000 0.000000e+000
         vertex -1.750000e+000 -1.750000e+000 0.000000e+000
         vertex -3.153391e+000 -1.518593e+000 0.000000e+000
      endloop
   endfacet
   facet normal 0.000000e+000 -0.000000e+000 -1.000000e+000
      outer loop
         vertex 1.132926e+000 -1.333784e+000 0.000000e+000
         vertex 1.393163e+000 -1.059055e+000 0.000000e+000
         vertex 1.750000e+000 -1.750000e+000 0.000000e+000
      endloop
   endfacet
   facet normal 0.000000e+000 0.000000e+000 -1.000000e+000
      outer loop
         vertex 4.681746e-001 1.686213e+000 0.000000e+000
         vertex 1.750000e+000 1.750000e+000 0.000000e+000
         vertex 8.197148e-001 1.546146e+000 0.000000e+000
      endloop
   endfacet
   facet normal 0.000000e+000 0.000000e+000 -1.000000e+000
      outer loop
         vertex 4.681746e-001 1.686213e+000 0.000000e+000
         vertex 9.474309e-002 1.747433e+000 0.000000e+000
         vertex 1.750000e+000 1.750000e+000 0.000000e+000
      endloop
   endfacet
   facet normal 0.000000e+000 0.000000e+000 -1.000000e+000
      outer loop
         vertex 3.344505e+000 -1.031643e+000 0.000000e+000
         vertex 3.153391e+000 -1.518593e+000 0.000000e+000
         vertex 1.588257e+000 -7.348059e-001 0.000000e+000
      endloop
   endfacet
   facet normal 0.000000e+000 -0.000000e+000 -1.000000e+000
      outer loop
         vertex 1.588257e+000 7.348059e-001 0.000000e+000
         vertex 1.750000e+000 1.750000e+000 0.000000e+000
         vertex 3.153391e+000 1.518593e+000 0.000000e+000
      endloop
   endfacet
   facet normal 0.000000e+000 0.000000e+000 -1.000000e+000
      outer loop
         vertex 2.615553e-001 -3.490213e+000 0.000000e+000
         vertex -2.615553e-001 -3.490213e+000 0.000000e+000
         vertex 1.750000e+000 -1.750000e+000 0.000000e+000
      endloop
   endfacet
   facet normal 0.000000e+000 0.000000e+000 -1.000000e+000
      outer loop
         vertex -1.739741e+000 -1.892083e-001 0.000000e+000
         vertex -1.750000e+000 -1.750000e+000 0.000000e+000
         vertex -1.739741e+000 1.892083e-001 0.000000e+000
      endloop
   endfacet
   facet normal 0.000000e+000 0.000000e+000 -1.000000e+000
      outer loop
         vertex 7.788233e-001 -3.412248e+000 0.000000e+000
         vertex 2.615553e-001 -3.490213e+000 0.000000e+000
         vertex 1.750000e+000 -1.750000e+000 0.000000e+000
      endloop
   endfacet
   facet normal 0.000000e+000 0.000000e+000 -1.000000e+000
      outer loop
         vertex 1.750000e+000 1.750000e+000 0.000000e+000
         vertex 7.788233e-001 3.412248e+000 0.000000e+000
         vertex 1.278694e+000 3.258058e+000 0.000000e+000
      endloop
   endfacet
   facet normal 0.000000e+000 -0.000000e+000 -1.000000e+000
      outer loop
         vertex -1.750000e+000 1.750000e+000 0.000000e+000
         vertex -7.788233e-001 3.412248e+000 0.000000e+000
         vertex -2.615553e-001 3.490213e+000 0.000000e+000
      endloop
   endfacet
   facet normal 0.000000e+000 0.000000e+000 -1.000000e+000
      outer loop
         vertex -1.750000e+000 1.750000e+000 0.000000e+000
         vertex -3.344505e+000 1.031643e+000 0.000000e+000
         vertex -3.153391e+000 1.518593e+000 0.000000e+000
      endloop
   endfacet
   facet normal 0.000000e+000 0.000000e+000 -1.000000e+000
      outer loop
         vertex 9.474309e-002 -1.747433e+000 0.000000e+000
         vertex 1.750000e+000 -1.750000e+000 0.000000e+000
         vertex -1.750000e+000 -1.750000e+000 0.000000e+000
      endloop
   endfacet
   facet normal 0.000000e+000 0.000000e+000 -1.000000e+000
      outer loop
         vertex -3.460908e+000 5.216479e-001 0.000000e+000
         vertex -1.750000e+000 1.750000e+000 0.000000e+000
         vertex -3.500000e+000 -1.902842e-015 0.000000e+000
      endloop
   endfacet
   facet normal 0.000000e+000 0.000000e+000 -1.000000e+000
      outer loop
         vertex -3.344505e+000 -1.031643e+000 0.000000e+000
         vertex -3.460908e+000 -5.216479e-001 0.000000e+000
         vertex -1.750000e+000 -1.750000e+000 0.000000e+000
      endloop
   endfacet
   facet normal -0.000000e+000 0.000000e+000 -1.000000e+000
      outer loop
         vertex -1.739741e+000 -1.892083e-001 0.000000e+000
         vertex -1.658393e+000 -5.587777e-001 0.000000e+000
         vertex -1.750000e+000 -1.750000e+000 0.000000e+000
      endloop
   endfacet
   facet normal 0.000000e+000 0.000000e+000 -1.000000e+000
      outer loop
         vertex -1.658393e+000 5.587777e-001 0.000000e+000
         vertex -1.739741e+000 1.892083e-001 0.000000e+000
         vertex -1.750000e+000 1.750000e+000 0.000000e+000
      endloop
   endfacet
   facet normal 0.000000e+000 0.000000e+000 -1.000000e+000
      outer loop
         vertex -1.278694e+000 3.258058e+000 0.000000e+000
         vertex -7.788233e-001 3.412248e+000 0.000000e+000
         vertex -1.750000e+000 1.750000e+000 0.000000e+000
      endloop
   endfacet
   facet normal 0.000000e+000 0.000000e+000 -1.000000e+000
      outer loop
         vertex -3.344505e+000 1.031643e+000 0.000000e+000
         vertex -1.750000e+000 1.750000e+000 0.000000e+000
         vertex -3.460908e+000 5.216479e-001 0.000000e+000
      endloop
   endfacet
   facet normal 0.000000e+000 0.000000e+000 -1.000000e+000
      outer loop
         vertex 1.750000e+000 1.750000e+000 0.000000e+000
         vertex 2.615553e-001 3.490213e+000 0.000000e+000
         vertex 7.788233e-001 3.412248e+000 0.000000e+000
      endloop
   endfacet
   facet normal -0.000000e+000 0.000000e+000 -1.000000e+000
      outer loop
         vertex -1.750000e+000 1.750000e+000 0.000000e+000
         vertex -2.831185e-001 1.726946e+000 0.000000e+000
         vertex -6.477418e-001 1.625709e+000 0.000000e+000
      endloop
   endfacet
   facet normal -0.000000e+000 0.000000e+000 -1.000000e+000
      outer loop
         vertex -2.615553e-001 3.490213e+000 0.000000e+000
         vertex 2.615553e-001 3.490213e+000 0.000000e+000
         vertex -1.750000e+000 1.750000e+000 0.000000e+000
      endloop
   endfacet
   facet normal 0.000000e+000 0.000000e+000 -1.000000e+000
      outer loop
         vertex 1.278694e+000 -3.258058e+000 0.000000e+000
         vertex 7.788233e-001 -3.412248e+000 0.000000e+000
         vertex 1.750000e+000 -1.750000e+000 0.000000e+000
      endloop
   endfacet
   facet normal 0.000000e+000 0.000000e+000 -1.000000e+000
      outer loop
         vertex -7.788233e-001 -3.412248e+000 0.000000e+000
         vertex -1.750000e+000 -1.750000e+000 0.000000e+000
         vertex -2.615553e-001 -3.490213e+000 0.000000e+000
      endloop
   endfacet
   facet normal 0.000000e+000 0.000000e+000 -1.000000e+000
      outer loop
         vertex -1.278694e+000 -3.258058e+000 0.000000e+000
         vertex -1.750000e+000 -1.750000e+000 0.000000e+000
         vertex -7.788233e-001 -3.412248e+000 0.000000e+000
      endloop
   endfacet
   facet normal 0.000000e+000 0.000000e+000 -1.000000e+000
      outer loop
         vertex 1.750000e+000 -1.750000e+000 0.000000e+000
         vertex 9.474309e-002 -1.747433e+000 0.000000e+000
         vertex 4.681746e-001 -1.686213e+000 0.000000e+000
      endloop
   endfacet
   facet normal 0.000000e+000 -0.000000e+000 -1.000000e+000
      outer loop
         vertex -1.750000e+000 -1.750000e+000 0.000000e+000
         vertex -6.477418e-001 -1.625709e+000 0.000000e+000
         vertex -2.831185e-001 -1.726946e+000 0.000000e+000
      endloop
   endfacet
   facet normal 0.000000e+000 0.000000e+000 -1.000000e+000
      outer loop
         vertex 9.474309e-002 -1.747433e+000 0.000000e+000
         vertex -1.750000e+000 -1.750000e+000 0.000000e+000
         vertex -2.831185e-001 -1.726946e+000 0.000000e+000
      endloop
   endfacet
   facet normal 0.000000e+000 0.000000e+000 1.000000e+000
      outer loop
         vertex 3.460908e+000 -5.216479e-001 3.000000e+000
         vertex 3.500000e+000 0.000000e+000 3.000000e+000
         vertex 1.750000e+000 0.000000e+000 3.000000e+000
      endloop
   endfacet
   facet normal 0.000000e+000 0.000000e+000 1.000000e+000
      outer loop
         vertex 3.460908e+000 5.216479e-001 3.000000e+000
         vertex 3.344505e+000 1.031643e+000 3.000000e+000
         vertex 1.709086e+000 3.761983e-001 3.000000e+000
      endloop
   endfacet
   facet normal 0.000000e+000 0.000000e+000 1.000000e+000
      outer loop
         vertex 3.153391e+000 1.518593e+000 3.000000e+000
         vertex 2.891836e+000 1.971620e+000 3.000000e+000
         vertex 1.750000e+000 1.750000e+000 3.000000e+000
      endloop
   endfacet
   facet normal 0.000000e+000 0.000000e+000 1.000000e+000
      outer loop
         vertex 2.565681e+000 2.380605e+000 3.000000e+000
         vertex 2.182214e+000 2.736410e+000 3.000000e+000
         vertex 1.750000e+000 1.750000e+000 3.000000e+000
      endloop
   endfacet
   facet normal 0.000000e+000 0.000000e+000 1.000000e+000
      outer loop
         vertex 1.750000e+000 3.031089e+000 3.000000e+000
         vertex 1.278694e+000 3.258058e+000 3.000000e+000
         vertex 1.750000e+000 1.750000e+000 3.000000e+000
      endloop
   endfacet
   facet normal -0.000000e+000 0.000000e+000 1.000000e+000
      outer loop
         vertex -1.278694e+000 3.258058e+000 3.000000e+000
         vertex -1.750000e+000 3.031089e+000 3.000000e+000
         vertex -1.750000e+000 1.750000e+000 3.000000e+000
      endloop
   endfacet
   facet normal -0.000000e+000 0.000000e+000 1.000000e+000
      outer loop
         vertex -2.182214e+000 2.736410e+000 3.000000e+000
         vertex -2.565681e+000 2.380605e+000 3.000000e+000
         vertex -1.750000e+000 1.750000e+000 3.000000e+000
      endloop
   endfacet
   facet normal 0.000000e+000 0.000000e+000 1.000000e+000
      outer loop
         vertex -2.891836e+000 1.971620e+000 3.000000e+000
         vertex -3.153391e+000 1.518593e+000 3.000000e+000
         vertex -1.750000e+000 1.750000e+000 3.000000e+000
      endloop
   endfacet
   facet normal 0.000000e+000 -0.000000e+000 1.000000e+000
      outer loop
         vertex -3.153391e+000 -1.518593e+000 3.000000e+000
         vertex -2.891836e+000 -1.971620e+000 3.000000e+000
         vertex -1.750000e+000 -1.750000e+000 3.000000e+000
      endloop
   endfacet
   facet normal 0.000000e+000 -0.000000e+000 1.000000e+000
      outer loop
         vertex -2.565681e+000 -2.380605e+000 3.000000e+000
         vertex -2.182214e+000 -2.736410e+000 3.000000e+000
         vertex -1.750000e+000 -1.750000e+000 3.000000e+000
      endloop
   endfacet
   facet normal 0.000000e+000 0.000000e+000 1.000000e+000
      outer loop
         vertex -1.750000e+000 -3.031089e+000 3.000000e+000
         vertex -1.278694e+000 -3.258058e+000 3.000000e+000
         vertex -1.750000e+000 -1.750000e+000 3.000000e+000
      endloop
   endfacet
   facet normal 0.000000e+000 -0.000000e+000 1.000000e+000
      outer loop
         vertex 1.278694e+000 -3.258058e+000 3.000000e+000
         vertex 1.750000e+000 -3.031089e+000 3.000000e+000
         vertex 1.750000e+000 -1.750000e+000 3.000000e+000
      endloop
   endfacet
   facet normal 0.000000e+000 0.000000e+000 1.000000e+000
      outer loop
         vertex 2.182214e+000 -2.736410e+000 3.000000e+000
         vertex 2.565681e+000 -2.380605e+000 3.000000e+000
         vertex 1.750000e+000 -1.750000e+000 3.000000e+000
      endloop
   endfacet
   facet normal 0.000000e+000 0.000000e+000 1.000000e+000
      outer loop
         vertex 2.891836e+000 -1.971620e+000 3.000000e+000
         vertex 3.153391e+000 -1.518593e+000 3.000000e+000
         vertex 1.750000e+000 -1.750000e+000 3.000000e+000
      endloop
   endfacet
   facet normal 0.000000e+000 0.000000e+000 1.000000e+000
      outer loop
         vertex 3.344505e+000 -1.031643e+000 3.000000e+000
         vertex 3.460908e+000 -5.216479e-001 3.000000e+000
         vertex 1.709086e+000 -3.761983e-001 3.000000e+000
      endloop
   endfacet
   facet normal -0.000000e+000 0.000000e+000 1.000000e+000
      outer loop
         vertex 1.750000e+000 0.000000e+000 3.000000e+000
         vertex 1.709086e+000 -3.761983e-001 3.000000e+000
         vertex 3.460908e+000 -5.216479e-001 3.000000e+000
      endloop
   endfacet
   facet normal -0.000000e+000 0.000000e+000 1.000000e+000
      outer loop
         vertex 1.588257e+000 -7.348059e-001 3.000000e+000
         vertex 1.393163e+000 -1.059055e+000 3.000000e+000
         vertex 1.750000e+000 -1.750000e+000 3.000000e+000
      endloop
   endfacet
   facet normal -0.000000e+000 0.000000e+000 1.000000e+000
      outer loop
         vertex 1.132926e+000 -1.333784e+000 3.000000e+000
         vertex 8.197148e-001 -1.546146e+000 3.000000e+000
         vertex 1.750000e+000 -1.750000e+000 3.000000e+000
      endloop
   endfacet
   facet normal 0.000000e+000 0.000000e+000 1.000000e+000
      outer loop
         vertex -6.477418e-001 -1.625709e+000 3.000000e+000
         vertex -9.820774e-001 -1.448456e+000 3.000000e+000
         vertex -1.750000e+000 -1.750000e+000 3.000000e+000
      endloop
   endfacet
   facet normal 0.000000e+000 0.000000e+000 1.000000e+000
      outer loop
         vertex -1.270492e+000 -1.203474e+000 3.000000e+000
         vertex -1.499500e+000 -9.022192e-001 3.000000e+000
         vertex -1.750000e+000 -1.750000e+000 3.000000e+000
      endloop
   endfacet
   facet normal 0.000000e+000 0.000000e+000 1.000000e+000
      outer loop
         vertex -1.658393e+000 5.587777e-001 3.000000e+000
         vertex -1.499500e+000 9.022192e-001 3.000000e+000
         vertex -1.750000e+000 1.750000e+000 3.000000e+000
      endloop
   endfacet
   facet normal 0.000000e+000 0.000000e+000 1.000000e+000
      outer loop
         vertex -1.270492e+000 1.203474e+000 3.000000e+000
         vertex -9.820774e-001 1.448456e+000 3.000000e+000
         vertex -1.750000e+000 1.750000e+000 3.000000e+000
      endloop
   endfacet
   facet normal 0.000000e+000 -0.000000e+000 1.000000e+000
      outer loop
         vertex 8.197148e-001 1.546146e+000 3.000000e+000
         vertex 1.132926e+000 1.333784e+000 3.000000e+000
         vertex 1.750000e+000 1.750000e+000 3.000000e+000
      endloop
   endfacet
   facet normal 0.000000e+000 -0.000000e+000 1.000000e+000
      outer loop
         vertex 1.393163e+000 1.059055e+000 3.000000e+000
         vertex 1.588257e+000 7.348059e-001 3.000000e+000
         vertex 1.750000e+000 1.750000e+000 3.000000e+000
      endloop
   endfacet
   facet normal -0.000000e+000 0.000000e+000 1.000000e+000
      outer loop
         vertex 1.750000e+000 -1.750000e+000 3.000000e+000
         vertex -1.750000e+000 -1.750000e+000 3.000000e+000
         vertex -2.615553e-001 -3.490213e+000 3.000000e+000
      endloop
   endfacet
   facet normal 0.000000e+000 0.000000e+000 1.000000e+000
      outer loop
         vertex -1.750000e+000 -1.750000e+000 3.000000e+000
         vertex 1.750000e+000 -1.750000e+000 3.000000e+000
         vertex 9.474309e-002 -1.747433e+000 3.000000e+000
      endloop
   endfacet
   facet normal 0.000000e+000 0.000000e+000 1.000000e+000
      outer loop
         vertex -1.750000e+000 1.750000e+000 3.000000e+000
         vertex -1.750000e+000 -1.750000e+000 3.000000e+000
         vertex -1.739741e+000 1.892083e-001 3.000000e+000
      endloop
   endfacet
   facet normal 0.000000e+000 0.000000e+000 1.000000e+000
      outer loop
         vertex 1.750000e+000 0.000000e+000 3.000000e+000
         vertex 3.500000e+000 0.000000e+000 3.000000e+000
         vertex 3.460908e+000 5.216479e-001 3.000000e+000
      endloop
   endfacet
   facet normal 0.000000e+000 0.000000e+000 1.000000e+000
      outer loop
         vertex 3.153391e+000 1.518593e+000 3.000000e+000
         vertex 1.750000e+000 1.750000e+000 3.000000e+000
         vertex 1.588257e+000 7.348059e-001 3.000000e+000
      endloop
   endfacet
   facet normal 0.000000e+000 0.000000e+000 1.000000e+000
      outer loop
         vertex 2.565681e+000 2.380605e+000 3.000000e+000
         vertex 1.750000e+000 1.750000e+000 3.000000e+000
         vertex 2.891836e+000 1.971620e+000 3.000000e+000
      endloop
   endfacet
   facet normal 0.000000e+000 0.000000e+000 1.000000e+000
      outer loop
         vertex -1.750000e+000 1.750000e+000 3.000000e+000
         vertex -1.750000e+000 3.031089e+000 3.000000e+000
         vertex -2.182214e+000 2.736410e+000 3.000000e+000
      endloop
   endfacet
   facet normal -0.000000e+000 0.000000e+000 1.000000e+000
      outer loop
         vertex -1.750000e+000 -1.750000e+000 3.000000e+000
         vertex -2.891836e+000 -1.971620e+000 3.000000e+000
         vertex -2.565681e+000 -2.380605e+000 3.000000e+000
      endloop
   endfacet
   facet normal 0.000000e+000 0.000000e+000 1.000000e+000
      outer loop
         vertex 1.750000e+000 -1.750000e+000 3.000000e+000
         vertex 1.750000e+000 -3.031089e+000 3.000000e+000
         vertex 2.182214e+000 -2.736410e+000 3.000000e+000
      endloop
   endfacet
   facet normal 0.000000e+000 0.000000e+000 1.000000e+000
      outer loop
         vertex 1.750000e+000 -1.750000e+000 3.000000e+000
         vertex 3.153391e+000 -1.518593e+000 3.000000e+000
         vertex 1.588257e+000 -7.348059e-001 3.000000e+000
      endloop
   endfacet
   facet normal 0.000000e+000 0.000000e+000 1.000000e+000
      outer loop
         vertex 1.750000e+000 -1.750000e+000 3.000000e+000
         vertex 1.393163e+000 -1.059055e+000 3.000000e+000
         vertex 1.132926e+000 -1.333784e+000 3.000000e+000
      endloop
   endfacet
   facet normal 0.000000e+000 0.000000e+000 1.000000e+000
      outer loop
         vertex -1.750000e+000 -1.750000e+000 3.000000e+000
         vertex -9.820774e-001 -1.448456e+000 3.000000e+000
         vertex -1.270492e+000 -1.203474e+000 3.000000e+000
      endloop
   endfacet
   facet normal 0.000000e+000 -0.000000e+000 1.000000e+000
      outer loop
         vertex -1.750000e+000 1.750000e+000 3.000000e+000
         vertex -1.499500e+000 9.022192e-001 3.000000e+000
         vertex -1.270492e+000 1.203474e+000 3.000000e+000
      endloop
   endfacet
   facet normal -0.000000e+000 0.000000e+000 1.000000e+000
      outer loop
         vertex 1.750000e+000 1.750000e+000 3.000000e+000
         vertex 1.132926e+000 1.333784e+000 3.000000e+000
         vertex 1.393163e+000 1.059055e+000 3.000000e+000
      endloop
   endfacet
   facet normal 0.000000e+000 0.000000e+000 1.000000e+000
      outer loop
         vertex -1.750000e+000 -1.750000e+000 3.000000e+000
         vertex 9.474309e-002 -1.747433e+000 3.000000e+000
         vertex -2.831185e-001 -1.726946e+000 3.000000e+000
      endloop
   endfacet
   facet normal 0.000000e+000 0.000000e+000 1.000000e+000
      outer loop
         vertex -1.739741e+000 1.892083e-001 3.000000e+000
         vertex -1.750000e+000 -1.750000e+000 3.000000e+000
         vertex -1.739741e+000 -1.892083e-001 3.000000e+000
      endloop
   endfacet
   facet normal 0.000000e+000 -0.000000e+000 1.000000e+000
      outer loop
         vertex 1.588257e+000 -7.348059e-001 3.000000e+000
         vertex 3.153391e+000 -1.518593e+000 3.000000e+000
         vertex 3.344505e+000 -1.031643e+000 3.000000e+000
      endloop
   endfacet
   facet normal 0.000000e+000 0.000000e+000 1.000000e+000
      outer loop
         vertex 1.588257e+000 -7.348059e-001 3.000000e+000
         vertex 3.344505e+000 -1.031643e+000 3.000000e+000
         vertex 1.709086e+000 -3.761983e-001 3.000000e+000
      endloop
   endfacet
   facet normal 0.000000e+000 0.000000e+000 1.000000e+000
      outer loop
         vertex 3.344505e+000 1.031643e+000 3.000000e+000
         vertex 3.153391e+000 1.518593e+000 3.000000e+000
         vertex 1.588257e+000 7.348059e-001 3.000000e+000
      endloop
   endfacet
   facet normal -0.000000e+000 0.000000e+000 1.000000e+000
      outer loop
         vertex -2.565681e+000 2.380605e+000 3.000000e+000
         vertex -2.891836e+000 1.971620e+000 3.000000e+000
         vertex -1.750000e+000 1.750000e+000 3.000000e+000
      endloop
   endfacet
   facet normal 0.000000e+000 -0.000000e+000 1.000000e+000
      outer loop
         vertex -2.182214e+000 -2.736410e+000 3.000000e+000
         vertex -1.750000e+000 -3.031089e+000 3.000000e+000
         vertex -1.750000e+000 -1.750000e+000 3.000000e+000
      endloop
   endfacet
   facet normal 0.000000e+000 0.000000e+000 1.000000e+000
      outer loop
         vertex 2.565681e+000 -2.380605e+000 3.000000e+000
         vertex 2.891836e+000 -1.971620e+000 3.000000e+000
         vertex 1.750000e+000 -1.750000e+000 3.000000e+000
      endloop
   endfacet
   facet normal -0.000000e+000 0.000000e+000 1.000000e+000
      outer loop
         vertex 8.197148e-001 -1.546146e+000 3.000000e+000
         vertex 4.681746e-001 -1.686213e+000 3.000000e+000
         vertex 1.750000e+000 -1.750000e+000 3.000000e+000
      endloop
   endfacet
   facet normal 0.000000e+000 0.000000e+000 1.000000e+000
      outer loop
         vertex -1.499500e+000 -9.022192e-001 3.000000e+000
         vertex -1.658393e+000 -5.587777e-001 3.000000e+000
         vertex -1.750000e+000 -1.750000e+000 3.000000e+000
      endloop
   endfacet
   facet normal 0.000000e+000 0.000000e+000 1.000000e+000
      outer loop
         vertex -9.820774e-001 1.448456e+000 3.000000e+000
         vertex -6.477418e-001 1.625709e+000 3.000000e+000
         vertex -1.750000e+000 1.750000e+000 3.000000e+000
      endloop
   endfacet
   facet normal 0.000000e+000 -0.000000e+000 1.000000e+000
      outer loop
         vertex 1.588257e+000 7.348059e-001 3.000000e+000
         vertex 1.709086e+000 3.761983e-001 3.000000e+000
         vertex 3.344505e+000 1.031643e+000 3.000000e+000
      endloop
   endfacet
   facet normal -0.000000e+000 0.000000e+000 1.000000e+000
      outer loop
         vertex 1.750000e+000 1.750000e+000 3.000000e+000
         vertex -1.750000e+000 1.750000e+000 3.000000e+000
         vertex 9.474309e-002 1.747433e+000 3.000000e+000
      endloop
   endfacet
   facet normal -0.000000e+000 0.000000e+000 1.000000e+000
      outer loop
         vertex 3.460908e+000 5.216479e-001 3.000000e+000
         vertex 1.709086e+000 3.761983e-001 3.000000e+000
         vertex 1.750000e+000 0.000000e+000 3.000000e+000
      endloop
   endfacet
   facet normal -0.000000e+000 0.000000e+000 1.000000e+000
      outer loop
         vertex -1.750000e+000 1.750000e+000 3.000000e+000
         vertex -3.153391e+000 1.518593e+000 3.000000e+000
         vertex -3.344505e+000 1.031643e+000 3.000000e+000
      endloop
   endfacet
   facet normal 0.000000e+000 0.000000e+000 1.000000e+000
      outer loop
         vertex 1.750000e+000 -1.750000e+000 3.000000e+000
         vertex -2.615553e-001 -3.490213e+000 3.000000e+000
         vertex 2.615553e-001 -3.490213e+000 3.000000e+000
      endloop
   endfacet
   facet normal 0.000000e+000 -0.000000e+000 1.000000e+000
      outer loop
         vertex -1.750000e+000 1.750000e+000 3.000000e+000
         vertex -1.739741e+000 1.892083e-001 3.000000e+000
         vertex -1.658393e+000 5.587777e-001 3.000000e+000
      endloop
   endfacet
   facet normal -0.000000e+000 0.000000e+000 1.000000e+000
      outer loop
         vertex 1.750000e+000 1.750000e+000 3.000000e+000
         vertex 9.474309e-002 1.747433e+000 3.000000e+000
         vertex 4.681746e-001 1.686213e+000 3.000000e+000
      endloop
   endfacet
   facet normal 0.000000e+000 0.000000e+000 1.000000e+000
      outer loop
         vertex 1.750000e+000 -1.750000e+000 3.000000e+000
         vertex 2.615553e-001 -3.490213e+000 3.000000e+000
         vertex 7.788233e-001 -3.412248e+000 3.000000e+000
      endloop
   endfacet
   facet normal 0.000000e+000 0.000000e+000 1.000000e+000
      outer loop
         vertex 2.182214e+000 2.736410e+000 3.000000e+000
         vertex 1.750000e+000 3.031089e+000 3.000000e+000
         vertex 1.750000e+000 1.750000e+000 3.000000e+000
      endloop
   endfacet
   facet normal 0.000000e+000 0.000000e+000 1.000000e+000
      outer loop
         vertex -3.344505e+000 1.031643e+000 3.000000e+000
         vertex -3.460908e+000 5.216479e-001 3.000000e+000
         vertex -1.750000e+000 1.750000e+000 3.000000e+000
      endloop
   endfacet
   facet normal -0.000000e+000 -0.000000e+000 1.000000e+000
      outer loop
         vertex -3.500000e+000 -1.902842e-015 3.000000e+000
         vertex -3.460908e+000 -5.216479e-001 3.000000e+000
         vertex -1.750000e+000 -1.750000e+000 3.000000e+000
      endloop
   endfacet
   facet normal -0.000000e+000 -0.000000e+000 1.000000e+000
      outer loop
         vertex -3.344505e+000 -1.031643e+000 3.000000e+000
         vertex -3.153391e+000 -1.518593e+000 3.000000e+000
         vertex -1.750000e+000 -1.750000e+000 3.000000e+000
      endloop
   endfacet
   facet normal 0.000000e+000 -0.000000e+000 1.000000e+000
      outer loop
         vertex 4.681746e-001 1.686213e+000 3.000000e+000
         vertex 8.197148e-001 1.546146e+000 3.000000e+000
         vertex 1.750000e+000 1.750000e+000 3.000000e+000
      endloop
   endfacet
   facet normal 0.000000e+000 0.000000e+000 1.000000e+000
      outer loop
         vertex -1.750000e+000 1.750000e+000 3.000000e+000
         vertex 1.750000e+000 1.750000e+000 3.000000e+000
         vertex 2.615553e-001 3.490213e+000 3.000000e+000
      endloop
   endfacet
   facet normal 0.000000e+000 0.000000e+000 1.000000e+000
      outer loop
         vertex -2.615553e-001 -3.490213e+000 3.000000e+000
         vertex -1.750000e+000 -1.750000e+000 3.000000e+000
         vertex -7.788233e-001 -3.412248e+000 3.000000e+000
      endloop
   endfacet
   facet normal 0.000000e+000 0.000000e+000 1.000000e+000
      outer loop
         vertex -1.739741e+000 -1.892083e-001 3.000000e+000
         vertex -1.750000e+000 -1.750000e+000 3.000000e+000
         vertex -1.658393e+000 -5.587777e-001 3.000000e+000
      endloop
   endfacet
   facet normal 0.000000e+000 0.000000e+000 1.000000e+000
      outer loop
         vertex 9.474309e-002 1.747433e+000 3.000000e+000
         vertex -1.750000e+000 1.750000e+000 3.000000e+000
         vertex -2.831185e-001 1.726946e+000 3.000000e+000
      endloop
   endfacet
   facet normal 0.000000e+000 -0.000000e+000 1.000000e+000
      outer loop
         vertex -3.500000e+000 -1.902842e-015 3.000000e+000
         vertex -1.750000e+000 -1.750000e+000 3.000000e+000
         vertex -1.750000e+000 1.750000e+000 3.000000e+000
      endloop
   endfacet
   facet normal 0.000000e+000 0.000000e+000 1.000000e+000
      outer loop
         vertex -1.750000e+000 1.750000e+000 3.000000e+000
         vertex 2.615553e-001 3.490213e+000 3.000000e+000
         vertex -2.615553e-001 3.490213e+000 3.000000e+000
      endloop
   endfacet
   facet normal 0.000000e+000 0.000000e+000 1.000000e+000
      outer loop
         vertex -2.831185e-001 1.726946e+000 3.000000e+000
         vertex -1.750000e+000 1.750000e+000 3.000000e+000
         vertex -6.477418e-001 1.625709e+000 3.000000e+000
      endloop
   endfacet
   facet normal 0.000000e+000 0.000000e+000 1.000000e+000
      outer loop
         vertex 1.278694e+000 3.258058e+000 3.000000e+000
         vertex 7.788233e-001 3.412248e+000 3.000000e+000
         vertex 1.750000e+000 1.750000e+000 3.000000e+000
      endloop
   endfacet
   facet normal -0.000000e+000 0.000000e+000 1.000000e+000
      outer loop
         vertex -2.615553e-001 3.490213e+000 3.000000e+000
         vertex -7.788233e-001 3.412248e+000 3.000000e+000
         vertex -1.750000e+000 1.750000e+000 3.000000e+000
      endloop
   endfacet
   facet normal 0.000000e+000 0.000000e+000 1.000000e+000
      outer loop
         vertex -3.460908e+000 5.216479e-001 3.000000e+000
         vertex -3.500000e+000 -1.902842e-015 3.000000e+000
         vertex -1.750000e+000 1.750000e+000 3.000000e+000
      endloop
   endfacet
   facet normal 0.000000e+000 0.000000e+000 1.000000e+000
      outer loop
         vertex -1.278694e+000 3.258058e+000 3.000000e+000
         vertex -1.750000e+000 1.750000e+000 3.000000e+000
         vertex -7.788233e-001 3.412248e+000 3.000000e+000
      endloop
   endfacet
   facet normal 0.000000e+000 0.000000e+000 1.000000e+000
      outer loop
         vertex 9.474309e-002 -1.747433e+000 3.000000e+000
         vertex 1.750000e+000 -1.750000e+000 3.000000e+000
         vertex 4.681746e-001 -1.686213e+000 3.000000e+000
      endloop
   endfacet
   facet normal 0.000000e+000 0.000000e+000 1.000000e+000
      outer loop
         vertex -1.750000e+000 -1.750000e+000 3.000000e+000
         vertex -3.460908e+000 -5.216479e-001 3.000000e+000
         vertex -3.344505e+000 -1.031643e+000 3.000000e+000
      endloop
   endfacet
   facet normal 0.000000e+000 0.000000e+000 1.000000e+000
      outer loop
         vertex 1.750000e+000 1.750000e+000 3.000000e+000
         vertex 7.788233e-001 3.412248e+000 3.000000e+000
         vertex 2.615553e-001 3.490213e+000 3.000000e+000
      endloop
   endfacet
   facet normal 0.000000e+000 0.000000e+000 1.000000e+000
      outer loop
         vertex -1.278694e+000 -3.258058e+000 3.000000e+000
         vertex -7.788233e-001 -3.412248e+000 3.000000e+000
         vertex -1.750000e+000 -1.750000e+000 3.000000e+000
      endloop
   endfacet
   facet normal 0.000000e+000 0.000000e+000 1.000000e+000
      outer loop
         vertex -2.831185e-001 -1.726946e+000 3.000000e+000
         vertex -6.477418e-001 -1.625709e+000 3.000000e+000
         vertex -1.750000e+000 -1.750000e+000 3.000000e+000
      endloop
   endfacet
   facet normal 0.000000e+000 0.000000e+000 1.000000e+000
      outer loop
         vertex 1.750000e+000 -1.750000e+000 3.000000e+000
         vertex 7.788233e-001 -3.412248e+000 3.000000e+000
         vertex 1.278694e+000 -3.258058e+000 3.000000e+000
      endloop
   endfacet
   facet normal -9.941379e-001 -1.081191e-001 0.000000e+000
      outer loop
         vertex 1.709086e+000 3.761983e-001 0.000000e+000
         vertex 1.750000e+000 0.000000e+000 0.000000e+000
         vertex 1.750000e+000 0.000000e+000 3.000000e+000
      endloop
   endfacet
   facet normal -8.568572e-001 -5.155539e-001 0.000000e+000
      outer loop
         vertex 1.393163e+000 1.059055e+000 3.000000e+000
         vertex 1.393163e+000 1.059055e+000 0.000000e+000
         vertex 1.588257e+000 7.348059e-001 0.000000e+000
      endloop
   endfacet
   facet normal -5.611870e-001 -8.276891e-001 0.000000e+000
      outer loop
         vertex 8.197148e-001 1.546146e+000 3.000000e+000
         vertex 8.197148e-001 1.546146e+000 0.000000e+000
         vertex 1.132926e+000 1.333784e+000 0.000000e+000
      endloop
   endfacet
   facet normal -1.617817e-001 -9.868266e-001 0.000000e+000
      outer loop
         vertex 9.474309e-002 1.747433e+000 3.000000e+000
         vertex 9.474309e-002 1.747433e+000 0.000000e+000
         vertex 4.681746e-001 1.686213e+000 0.000000e+000
      endloop
   endfacet
   facet normal 2.675284e-001 -9.635500e-001 0.000000e+000
      outer loop
         vertex -6.477418e-001 1.625709e+000 3.000000e+000
         vertex -6.477418e-001 1.625709e+000 0.000000e+000
         vertex -2.831185e-001 1.726946e+000 0.000000e+000
      endloop
   endfacet
   facet normal 6.473863e-001 -7.621621e-001 0.000000e+000
      outer loop
         vertex -1.270492e+000 1.203474e+000 3.000000e+000
         vertex -1.270492e+000 1.203474e+000 0.000000e+000
         vertex -9.820774e-001 1.448456e+000 0.000000e+000
      endloop
   endfacet
   facet normal 9.075754e-001 -4.198891e-001 0.000000e+000
      outer loop
         vertex -1.658393e+000 5.587777e-001 3.000000e+000
         vertex -1.658393e+000 5.587777e-001 0.000000e+000
         vertex -1.499500e+000 9.022192e-001 0.000000e+000
      endloop
   endfacet
   facet normal 1.000000e+000 0.000000e+000 0.000000e+000
      outer loop
         vertex -1.739741e+000 -1.892083e-001 3.000000e+000
         vertex -1.739741e+000 -1.892083e-001 0.000000e+000
         vertex -1.739741e+000 1.892083e-001 0.000000e+000
      endloop
   endfacet
   facet normal 9.075754e-001 4.198891e-001 -0.000000e+000
      outer loop
         vertex -1.499500e+000 -9.022192e-001 3.000000e+000
         vertex -1.499500e+000 -9.022192e-001 0.000000e+000
         vertex -1.658393e+000 -5.587777e-001 0.000000e+000
      endloop
   endfacet
   facet normal 6.473863e-001 7.621621e-001 -0.000000e+000
      outer loop
         vertex -9.820774e-001 -1.448456e+000 3.000000e+000
         vertex -9.820774e-001 -1.448456e+000 0.000000e+000
         vertex -1.270492e+000 -1.203474e+000 0.000000e+000
      endloop
   endfacet
   facet normal 2.675284e-001 9.635500e-001 -0.000000e+000
      outer loop
         vertex -2.831185e-001 -1.726946e+000 3.000000e+000
         vertex -2.831185e-001 -1.726946e+000 0.000000e+000
         vertex -6.477418e-001 -1.625709e+000 0.000000e+000
      endloop
   endfacet
   facet normal -1.617817e-001 9.868266e-001 0.000000e+000
      outer loop
         vertex 4.681746e-001 -1.686213e+000 3.000000e+000
         vertex 4.681746e-001 -1.686213e+000 0.000000e+000
         vertex 9.474309e-002 -1.747433e+000 0.000000e+000
      endloop
   endfacet
   facet normal -5.611870e-001 8.276891e-001 0.000000e+000
      outer loop
         vertex 1.132926e+000 -1.333784e+000 3.000000e+000
         vertex 1.132926e+000 -1.333784e+000 0.000000e+000
         vertex 8.197148e-001 -1.546146e+000 0.000000e+000
      endloop
   endfacet
   facet normal -8.568572e-001 5.155539e-001 0.000000e+000
      outer loop
         vertex 1.588257e+000 -7.348059e-001 3.000000e+000
         vertex 1.588257e+000 -7.348059e-001 0.000000e+000
         vertex 1.393163e+000 -1.059055e+000 0.000000e+000
      endloop
   endfacet
   facet normal -9.941379e-001 1.081191e-001 0.000000e+000
      outer loop
         vertex 1.750000e+000 0.000000e+000 3.000000e+000
         vertex 1.750000e+000 0.000000e+000 0.000000e+000
         vertex 1.709086e+000 -3.761983e-001 0.000000e+000
      endloop
   endfacet
   facet normal -9.476532e-001 3.193015e-001 0.000000e+000
      outer loop
         vertex 1.588257e+000 -7.348059e-001 0.000000e+000
         vertex 1.588257e+000 -7.348059e-001 3.000000e+000
         vertex 1.709086e+000 -3.761983e-001 3.000000e+000
      endloop
   endfacet
   facet normal -7.259956e-001 6.876994e-001 0.000000e+000
      outer loop
         vertex 1.132926e+000 -1.333784e+000 0.000000e+000
         vertex 1.132926e+000 -1.333784e+000 3.000000e+000
         vertex 1.393163e+000 -1.059055e+000 3.000000e+000
      endloop
   endfacet
   facet normal -3.701384e-001 9.289766e-001 0.000000e+000
      outer loop
         vertex 4.681746e-001 -1.686213e+000 0.000000e+000
         vertex 4.681746e-001 -1.686213e+000 3.000000e+000
         vertex 8.197148e-001 -1.546146e+000 3.000000e+000
      endloop
   endfacet
   facet normal 5.413862e-002 9.985334e-001 0.000000e+000
      outer loop
         vertex -2.831185e-001 -1.726946e+000 0.000000e+000
         vertex -2.831185e-001 -1.726946e+000 3.000000e+000
         vertex 9.474309e-002 -1.747433e+000 3.000000e+000
      endloop
   endfacet
   facet normal 4.684087e-001 8.835119e-001 0.000000e+000
      outer loop
         vertex -9.820774e-001 -1.448456e+000 0.000000e+000
         vertex -9.820774e-001 -1.448456e+000 3.000000e+000
         vertex -6.477418e-001 -1.625709e+000 3.000000e+000
      endloop
   endfacet
   facet normal 7.960931e-001 6.051742e-001 0.000000e+000
      outer loop
         vertex -1.499500e+000 -9.022192e-001 0.000000e+000
         vertex -1.499500e+000 -9.022192e-001 3.000000e+000
         vertex -1.270492e+000 -1.203474e+000 3.000000e+000
      endloop
   endfacet
   facet normal 9.766205e-001 2.149705e-001 0.000000e+000
      outer loop
         vertex -1.739741e+000 -1.892083e-001 0.000000e+000
         vertex -1.739741e+000 -1.892083e-001 3.000000e+000
         vertex -1.658393e+000 -5.587777e-001 3.000000e+000
      endloop
   endfacet
   facet normal 9.766205e-001 -2.149705e-001 0.000000e+000
      outer loop
         vertex -1.658393e+000 5.587777e-001 0.000000e+000
         vertex -1.658393e+000 5.587777e-001 3.000000e+000
         vertex -1.739741e+000 1.892083e-001 3.000000e+000
      endloop
   endfacet
   facet normal 7.960931e-001 -6.051742e-001 0.000000e+000
      outer loop
         vertex -1.270492e+000 1.203474e+000 0.000000e+000
         vertex -1.270492e+000 1.203474e+000 3.000000e+000
         vertex -1.499500e+000 9.022192e-001 3.000000e+000
      endloop
   endfacet
   facet normal 4.684087e-001 -8.835119e-001 0.000000e+000
      outer loop
         vertex -6.477418e-001 1.625709e+000 0.000000e+000
         vertex -6.477418e-001 1.625709e+000 3.000000e+000
         vertex -9.820774e-001 1.448456e+000 3.000000e+000
      endloop
   endfacet
   facet normal 5.413862e-002 -9.985334e-001 0.000000e+000
      outer loop
         vertex 9.474309e-002 1.747433e+000 0.000000e+000
         vertex 9.474309e-002 1.747433e+000 3.000000e+000
         vertex -2.831185e-001 1.726946e+000 3.000000e+000
      endloop
   endfacet
   facet normal -3.701384e-001 -9.289766e-001 -0.000000e+000
      outer loop
         vertex 8.197148e-001 1.546146e+000 0.000000e+000
         vertex 8.197148e-001 1.546146e+000 3.000000e+000
         vertex 4.681746e-001 1.686213e+000 3.000000e+000
      endloop
   endfacet
   facet normal -7.259956e-001 -6.876994e-001 -0.000000e+000
      outer loop
         vertex 1.393163e+000 1.059055e+000 0.000000e+000
         vertex 1.393163e+000 1.059055e+000 3.000000e+000
         vertex 1.132926e+000 1.333784e+000 3.000000e+000
      endloop
   endfacet
   facet normal -9.476532e-001 -3.193015e-001 -0.000000e+000
      outer loop
         vertex 1.709086e+000 3.761983e-001 0.000000e+000
         vertex 1.709086e+000 3.761983e-001 3.000000e+000
         vertex 1.588257e+000 7.348059e-001 3.000000e+000
      endloop
   endfacet
   facet normal -9.941379e-001 -1.081191e-001 0.000000e+000
      outer loop
         vertex 1.709086e+000 3.761983e-001 3.000000e+000
         vertex 1.709086e+000 3.761983e-001 0.000000e+000
         vertex 1.750000e+000 0.000000e+000 3.000000e+000
      endloop
   endfacet
   facet normal -1.617817e-001 -9.868266e-001 0.000000e+000
      outer loop
         vertex 4.681746e-001 1.686213e+000 3.000000e+000
         vertex 9.474309e-002 1.747433e+000 3.000000e+000
         vertex 4.681746e-001 1.686213e+000 0.000000e+000
      endloop
   endfacet
   facet normal 9.075754e-001 -4.198891e-001 0.000000e+000
      outer loop
         vertex -1.499500e+000 9.022192e-001 3.000000e+000
         vertex -1.658393e+000 5.587777e-001 3.000000e+000
         vertex -1.499500e+000 9.022192e-001 0.000000e+000
      endloop
   endfacet
   facet normal 6.473863e-001 7.621621e-001 0.000000e+000
      outer loop
         vertex -1.270492e+000 -1.203474e+000 3.000000e+000
         vertex -9.820774e-001 -1.448456e+000 3.000000e+000
         vertex -1.270492e+000 -1.203474e+000 0.000000e+000
      endloop
   endfacet
   facet normal -5.611870e-001 8.276891e-001 0.000000e+000
      outer loop
         vertex 8.197148e-001 -1.546146e+000 3.000000e+000
         vertex 1.132926e+000 -1.333784e+000 3.000000e+000
         vertex 8.197148e-001 -1.546146e+000 0.000000e+000
      endloop
   endfacet
   facet normal -9.476532e-001 3.193015e-001 0.000000e+000
      outer loop
         vertex 1.709086e+000 -3.761983e-001 0.000000e+000
         vertex 1.588257e+000 -7.348059e-001 0.000000e+000
         vertex 1.709086e+000 -3.761983e-001 3.000000e+000
      endloop
   endfacet
   facet normal 5.413862e-002 9.985334e-001 0.000000e+000
      outer loop
         vertex 9.474309e-002 -1.747433e+000 0.000000e+000
         vertex -2.831185e-001 -1.726946e+000 0.000000e+000
         vertex 9.474309e-002 -1.747433e+000 3.000000e+000
      endloop
   endfacet
   facet normal 9.766205e-001 2.149705e-001 0.000000e+000
      outer loop
         vertex -1.658393e+000 -5.587777e-001 0.000000e+000
         vertex -1.739741e+000 -1.892083e-001 0.000000e+000
         vertex -1.658393e+000 -5.587777e-001 3.000000e+000
      endloop
   endfacet
   facet normal 4.684087e-001 -8.835119e-001 0.000000e+000
      outer loop
         vertex -9.820774e-001 1.448456e+000 0.000000e+000
         vertex -6.477418e-001 1.625709e+000 0.000000e+000
         vertex -9.820774e-001 1.448456e+000 3.000000e+000
      endloop
   endfacet
   facet normal -7.259956e-001 -6.876994e-001 0.000000e+000
      outer loop
         vertex 1.132926e+000 1.333784e+000 0.000000e+000
         vertex 1.393163e+000 1.059055e+000 0.000000e+000
         vertex 1.132926e+000 1.333784e+000 3.000000e+000
      endloop
   endfacet
   facet normal 7.960931e-001 -6.051742e-001 0.000000e+000
      outer loop
         vertex -1.270492e+000 1.203474e+000 0.000000e+000
         vertex -1.499500e+000 9.022192e-001 3.000000e+000
         vertex -1.499500e+000 9.022192e-001 0.000000e+000
      endloop
   endfacet
   facet normal -1.617817e-001 9.868266e-001 0.000000e+000
      outer loop
         vertex 4.681746e-001 -1.686213e+000 3.000000e+000
         vertex 9.474309e-002 -1.747433e+000 0.000000e+000
         vertex 9.474309e-002 -1.747433e+000 3.000000e+000
      endloop
   endfacet
   facet normal -9.476532e-001 -3.193015e-001 0.000000e+000
      outer loop
         vertex 1.588257e+000 7.348059e-001 3.000000e+000
         vertex 1.588257e+000 7.348059e-001 0.000000e+000
         vertex 1.709086e+000 3.761983e-001 0.000000e+000
      endloop
   endfacet
   facet normal 5.413862e-002 -9.985334e-001 0.000000e+000
      outer loop
         vertex -2.831185e-001 1.726946e+000 3.000000e+000
         vertex -2.831185e-001 1.726946e+000 0.000000e+000
         vertex 9.474309e-002 1.747433e+000 0.000000e+000
      endloop
   endfacet
   facet normal 7.960931e-001 6.051742e-001 -0.000000e+000
      outer loop
         vertex -1.270492e+000 -1.203474e+000 3.000000e+000
         vertex -1.270492e+000 -1.203474e+000 0.000000e+000
         vertex -1.499500e+000 -9.022192e-001 0.000000e+000
      endloop
   endfacet
   facet normal -3.701384e-001 9.289766e-001 0.000000e+000
      outer loop
         vertex 8.197148e-001 -1.546146e+000 3.000000e+000
         vertex 8.197148e-001 -1.546146e+000 0.000000e+000
         vertex 4.681746e-001 -1.686213e+000 0.000000e+000
      endloop
   endfacet
   facet normal -9.941379e-001 1.081191e-001 0.000000e+000
      outer loop
         vertex 1.709086e+000 -3.761983e-001 0.000000e+000
         vertex 1.709086e+000 -3.761983e-001 3.000000e+000
         vertex 1.750000e+000 0.000000e+000 3.000000e+000
      endloop
   endfacet
   facet normal 2.675284e-001 9.635500e-001 0.000000e+000
      outer loop
         vertex -6.477418e-001 -1.625709e+000 0.000000e+000
         vertex -6.477418e-001 -1.625709e+000 3.000000e+000
         vertex -2.831185e-001 -1.726946e+000 3.000000e+000
      endloop
   endfacet
   facet normal 1.000000e+000 0.000000e+000 0.000000e+000
      outer loop
         vertex -1.739741e+000 1.892083e-001 0.000000e+000
         vertex -1.739741e+000 1.892083e-001 3.000000e+000
         vertex -1.739741e+000 -1.892083e-001 3.000000e+000
      endloop
   endfacet
   facet normal 2.675284e-001 -9.635500e-001 0.000000e+000
      outer loop
         vertex -2.831185e-001 1.726946e+000 0.000000e+000
         vertex -2.831185e-001 1.726946e+000 3.000000e+000
         vertex -6.477418e-001 1.625709e+000 3.000000e+000
      endloop
   endfacet
   facet normal -8.568572e-001 -5.155539e-001 -0.000000e+000
      outer loop
         vertex 1.588257e+000 7.348059e-001 0.000000e+000
         vertex 1.588257e+000 7.348059e-001 3.000000e+000
         vertex 1.393163e+000 1.059055e+000 3.000000e+000
      endloop
   endfacet
   facet normal 6.473863e-001 -7.621621e-001 0.000000e+000
      outer loop
         vertex -9.820774e-001 1.448456e+000 3.000000e+000
         vertex -1.270492e+000 1.203474e+000 3.000000e+000
         vertex -9.820774e-001 1.448456e+000 0.000000e+000
      endloop
   endfacet
   facet normal -7.259956e-001 6.876994e-001 0.000000e+000
      outer loop
         vertex 1.393163e+000 -1.059055e+000 0.000000e+000
         vertex 1.132926e+000 -1.333784e+000 0.000000e+000
         vertex 1.393163e+000 -1.059055e+000 3.000000e+000
      endloop
   endfacet
   facet normal -3.701384e-001 -9.289766e-001 0.000000e+000
      outer loop
         vertex 4.681746e-001 1.686213e+000 0.000000e+000
         vertex 8.197148e-001 1.546146e+000 0.000000e+000
         vertex 4.681746e-001 1.686213e+000 3.000000e+000
      endloop
   endfacet
   facet normal 4.684087e-001 8.835119e-001 0.000000e+000
      outer loop
         vertex -9.820774e-001 -1.448456e+000 0.000000e+000
         vertex -6.477418e-001 -1.625709e+000 3.000000e+000
         vertex -6.477418e-001 -1.625709e+000 0.000000e+000
      endloop
   endfacet
   facet normal 9.766205e-001 -2.149705e-001 0.000000e+000
      outer loop
         vertex -1.739741e+000 1.892083e-001 3.000000e+000
         vertex -1.739741e+000 1.892083e-001 0.000000e+000
         vertex -1.658393e+000 5.587777e-001 0.000000e+000
      endloop
   endfacet
   facet normal 9.075754e-001 4.198891e-001 0.000000e+000
      outer loop
         vertex -1.658393e+000 -5.587777e-001 0.000000e+000
         vertex -1.658393e+000 -5.587777e-001 3.000000e+000
         vertex -1.499500e+000 -9.022192e-001 3.000000e+000
      endloop
   endfacet
   facet normal -5.611870e-001 -8.276891e-001 0.000000e+000
      outer loop
         vertex 1.132926e+000 1.333784e+000 3.000000e+000
         vertex 8.197148e-001 1.546146e+000 3.000000e+000
         vertex 1.132926e+000 1.333784e+000 0.000000e+000
      endloop
   endfacet
   facet normal -8.568572e-001 5.155539e-001 0.000000e+000
      outer loop
         vertex 1.393163e+000 -1.059055e+000 0.000000e+000
         vertex 1.393163e+000 -1.059055e+000 3.000000e+000
         vertex 1.588257e+000 -7.348059e-001 3.000000e+000
      endloop
   endfacet
   facet normal 9.972038e-001 7.473001e-002 -0.000000e+000
      outer loop
         vertex 3.500000e+000 0.000000e+000 3.000000e+000
         vertex 3.500000e+000 0.000000e+000 0.000000e+000
         vertex 3.460908e+000 5.216479e-001 0.000000e+000
      endloop
   endfacet
   facet normal 9.308738e-001 3.653409e-001 -0.000000e+000
      outer loop
         vertex 3.344505e+000 1.031643e+000 0.000000e+000
         vertex 3.153391e+000 1.518593e+000 0.000000e+000
         vertex 3.153391e+000 1.518593e+000 3.000000e+000
      endloop
   endfacet
   facet normal 7.818314e-001 6.234900e-001 -0.000000e+000
      outer loop
         vertex 2.891836e+000 1.971620e+000 0.000000e+000
         vertex 2.565681e+000 2.380605e+000 0.000000e+000
         vertex 2.565681e+000 2.380605e+000 3.000000e+000
      endloop
   endfacet
   facet normal 5.633201e-001 8.262388e-001 -0.000000e+000
      outer loop
         vertex 2.182214e+000 2.736410e+000 0.000000e+000
         vertex 1.750000e+000 3.031089e+000 0.000000e+000
         vertex 1.750000e+000 3.031089e+000 3.000000e+000
      endloop
   endfacet
   facet normal 2.947552e-001 9.555728e-001 -0.000000e+000
      outer loop
         vertex 1.278694e+000 3.258058e+000 0.000000e+000
         vertex 7.788233e-001 3.412248e+000 0.000000e+000
         vertex 7.788233e-001 3.412248e+000 3.000000e+000
      endloop
   endfacet
   facet normal 0.000000e+000 1.000000e+000 0.000000e+000
      outer loop
         vertex 2.615553e-001 3.490213e+000 0.000000e+000
         vertex -2.615553e-001 3.490213e+000 0.000000e+000
         vertex -2.615553e-001 3.490213e+000 3.000000e+000
      endloop
   endfacet
   facet normal -2.947552e-001 9.555728e-001 0.000000e+000
      outer loop
         vertex -7.788233e-001 3.412248e+000 0.000000e+000
         vertex -1.278694e+000 3.258058e+000 0.000000e+000
         vertex -1.278694e+000 3.258058e+000 3.000000e+000
      endloop
   endfacet
   facet normal -5.633201e-001 8.262388e-001 0.000000e+000
      outer loop
         vertex -1.750000e+000 3.031089e+000 0.000000e+000
         vertex -2.182214e+000 2.736410e+000 0.000000e+000
         vertex -2.182214e+000 2.736410e+000 3.000000e+000
      endloop
   endfacet
   facet normal -7.818314e-001 6.234900e-001 0.000000e+000
      outer loop
         vertex -2.565681e+000 2.380605e+000 0.000000e+000
         vertex -2.891836e+000 1.971620e+000 0.000000e+000
         vertex -2.891836e+000 1.971620e+000 3.000000e+000
      endloop
   endfacet
   facet normal -9.308738e-001 3.653409e-001 0.000000e+000
      outer loop
         vertex -3.153391e+000 1.518593e+000 0.000000e+000
         vertex -3.344505e+000 1.031643e+000 0.000000e+000
         vertex -3.344505e+000 1.031643e+000 3.000000e+000
      endloop
   endfacet
   facet normal -9.972038e-001 7.473001e-002 0.000000e+000
      outer loop
         vertex -3.460908e+000 5.216479e-001 0.000000e+000
         vertex -3.500000e+000 -1.902842e-015 0.000000e+000
         vertex -3.500000e+000 -1.902842e-015 3.000000e+000
      endloop
   endfacet
   facet normal -9.749279e-001 -2.225210e-001 0.000000e+000
      outer loop
         vertex -3.460908e+000 -5.216479e-001 0.000000e+000
         vertex -3.344505e+000 -1.031643e+000 0.000000e+000
         vertex -3.344505e+000 -1.031643e+000 3.000000e+000
      endloop
   endfacet
   facet normal -8.660253e-001 -5.000001e-001 0.000000e+000
      outer loop
         vertex -3.153391e+000 -1.518593e+000 0.000000e+000
         vertex -2.891836e+000 -1.971620e+000 0.000000e+000
         vertex -2.891836e+000 -1.971620e+000 3.000000e+000
      endloop
   endfacet
   facet normal -6.801728e-001 -7.330518e-001 0.000000e+000
      outer loop
         vertex -2.565681e+000 -2.380605e+000 0.000000e+000
         vertex -2.182214e+000 -2.736410e+000 0.000000e+000
         vertex -2.182214e+000 -2.736410e+000 3.000000e+000
      endloop
   endfacet
   facet normal -4.338838e-001 -9.009689e-001 0.000000e+000
      outer loop
         vertex -1.750000e+000 -3.031089e+000 0.000000e+000
         vertex -1.278694e+000 -3.258058e+000 0.000000e+000
         vertex -1.278694e+000 -3.258058e+000 3.000000e+000
      endloop
   endfacet
   facet normal -1.490425e-001 -9.888308e-001 0.000000e+000
      outer loop
         vertex -7.788233e-001 -3.412248e+000 0.000000e+000
         vertex -2.615553e-001 -3.490213e+000 0.000000e+000
         vertex -2.615553e-001 -3.490213e+000 3.000000e+000
      endloop
   endfacet
   facet normal 1.490425e-001 -9.888308e-001 0.000000e+000
      outer loop
         vertex 2.615553e-001 -3.490213e+000 0.000000e+000
         vertex 7.788233e-001 -3.412248e+000 0.000000e+000
         vertex 7.788233e-001 -3.412248e+000 3.000000e+000
      endloop
   endfacet
   facet normal 4.338838e-001 -9.009689e-001 0.000000e+000
      outer loop
         vertex 1.278694e+000 -3.258058e+000 0.000000e+000
         vertex 1.750000e+000 -3.031089e+000 0.000000e+000
         vertex 1.750000e+000 -3.031089e+000 3.000000e+000
      endloop
   endfacet
   facet normal 6.801728e-001 -7.330518e-001 0.000000e+000
      outer loop
         vertex 2.182214e+000 -2.736410e+000 0.000000e+000
         vertex 2.565681e+000 -2.380605e+000 0.000000e+000
         vertex 2.565681e+000 -2.380605e+000 3.000000e+000
      endloop
   endfacet
   facet normal 8.660253e-001 -5.000001e-001 0.000000e+000
      outer loop
         vertex 2.891836e+000 -1.971620e+000 0.000000e+000
         vertex 3.153391e+000 -1.518593e+000 0.000000e+000
         vertex 3.153391e+000 -1.518593e+000 3.000000e+000
      endloop
   endfacet
   facet normal 9.749279e-001 -2.225210e-001 0.000000e+000
      outer loop
         vertex 3.344505e+000 -1.031643e+000 0.000000e+000
         vertex 3.460908e+000 -5.216479e-001 0.000000e+000
         vertex 3.460908e+000 -5.216479e-001 3.000000e+000
      endloop
   endfacet
   facet normal 9.972038e-001 -7.473001e-002 0.000000e+000
      outer loop
         vertex 3.500000e+000 0.000000e+000 0.000000e+000
         vertex 3.500000e+000 0.000000e+000 3.000000e+000
         vertex 3.460908e+000 -5.216479e-001 0.000000e+000
      endloop
   endfacet
   facet normal 9.308738e-001 -3.653409e-001 0.000000e+000
      outer loop
         vertex 3.344505e+000 -1.031643e+000 3.000000e+000
         vertex 3.153391e+000 -1.518593e+000 3.000000e+000
         vertex 3.153391e+000 -1.518593e+000 0.000000e+000
      endloop
   endfacet
   facet normal 7.818314e-001 -6.234900e-001 0.000000e+000
      outer loop
         vertex 2.891836e+000 -1.971620e+000 3.000000e+000
         vertex 2.565681e+000 -2.380605e+000 3.000000e+000
         vertex 2.565681e+000 -2.380605e+000 0.000000e+000
      endloop
   endfacet
   facet normal 5.633201e-001 -8.262388e-001 0.000000e+000
      outer loop
         vertex 2.182214e+000 -2.736410e+000 3.000000e+000
         vertex 1.750000e+000 -3.031089e+000 3.000000e+000
         vertex 1.750000e+000 -3.031089e+000 0.000000e+000
      endloop
   endfacet
   facet normal 2.947552e-001 -9.555728e-001 0.000000e+000
      outer loop
         vertex 1.278694e+000 -3.258058e+000 3.000000e+000
         vertex 7.788233e-001 -3.412248e+000 3.000000e+000
         vertex 7.788233e-001 -3.412248e+000 0.000000e+000
      endloop
   endfacet
   facet normal 0.000000e+000 -1.000000e+000 0.000000e+000
      outer loop
         vertex 2.615553e-001 -3.490213e+000 3.000000e+000
         vertex -2.615553e-001 -3.490213e+000 3.000000e+000
         vertex -2.615553e-001 -3.490213e+000 0.000000e+000
      endloop
   endfacet
   facet normal -2.947552e-001 -9.555728e-001 -0.000000e+000
      outer loop
         vertex -7.788233e-001 -3.412248e+000 3.000000e+000
         vertex -1.278694e+000 -3.258058e+000 3.000000e+000
         vertex -1.278694e+000 -3.258058e+000 0.000000e+000
      endloop
   endfacet
   facet normal -5.633201e-001 -8.262388e-001 -0.000000e+000
      outer loop
         vertex -1.750000e+000 -3.031089e+000 3.000000e+000
         vertex -2.182214e+000 -2.736410e+000 3.000000e+000
         vertex -2.182214e+000 -2.736410e+000 0.000000e+000
      endloop
   endfacet
   facet normal -7.818314e-001 -6.234900e-001 -0.000000e+000
      outer loop
         vertex -2.565681e+000 -2.380605e+000 3.000000e+000
         vertex -2.891836e+000 -1.971620e+000 3.000000e+000
         vertex -2.891836e+000 -1.971620e+000 0.000000e+000
      endloop
   endfacet
   facet normal -9.308738e-001 -3.653409e-001 -0.000000e+000
      outer loop
         vertex -3.153391e+000 -1.518593e+000 3.000000e+000
         vertex -3.344505e+000 -1.031643e+000 3.000000e+000
         vertex -3.344505e+000 -1.031643e+000 0.000000e+000
      endloop
   endfacet
   facet normal -9.972038e-001 -7.473001e-002 -0.000000e+000
      outer loop
         vertex -3.460908e+000 -5.216479e-001 3.000000e+000
         vertex -3.500000e+000 -1.902842e-015 3.000000e+000
         vertex -3.500000e+000 -1.902842e-015 0.000000e+000
      endloop
   endfacet
   facet normal -9.749279e-001 2.225210e-001 0.000000e+000
      outer loop
         vertex -3.460908e+000 5.216479e-001 3.000000e+000
         vertex -3.344505e+000 1.031643e+000 3.000000e+000
         vertex -3.344505e+000 1.031643e+000 0.000000e+000
      endloop
   endfacet
   facet normal -8.660253e-001 5.000001e-001 0.000000e+000
      outer loop
         vertex -3.153391e+000 1.518593e+000 3.000000e+000
         vertex -2.891836e+000 1.971620e+000 3.000000e+000
         vertex -2.891836e+000 1.971620e+000 0.000000e+000
      endloop
   endfacet
   facet normal -6.801728e-001 7.330518e-001 0.000000e+000
      outer loop
         vertex -2.565681e+000 2.380605e+000 3.000000e+000
         vertex -2.182214e+000 2.736410e+000 3.000000e+000
         vertex -2.182214e+000 2.736410e+000 0.000000e+000
      endloop
   endfacet
   facet normal -4.338838e-001 9.009689e-001 0.000000e+000
      outer loop
         vertex -1.750000e+000 3.031089e+000 3.000000e+000
         vertex -1.278694e+000 3.258058e+000 3.000000e+000
         vertex -1.278694e+000 3.258058e+000 0.000000e+000
      endloop
   endfacet
   facet normal -1.490425e-001 9.888308e-001 0.000000e+000
      outer loop
         vertex -7.788233e-001 3.412248e+000 3.000000e+000
         vertex -2.615553e-001 3.490213e+000 3.000000e+000
         vertex -2.615553e-001 3.490213e+000 0.000000e+000
      endloop
   endfacet
   facet normal 1.490425e-001 9.888308e-001 0.000000e+000
      outer loop
         vertex 2.615553e-001 3.490213e+000 3.000000e+000
         vertex 7.788233e-001 3.412248e+000 3.000000e+000
         vertex 7.788233e-001 3.412248e+000 0.000000e+000
      endloop
   endfacet
   facet normal 4.338838e-001 9.009689e-001 0.000000e+000
      outer loop
         vertex 1.278694e+000 3.258058e+000 3.000000e+000
         vertex 1.750000e+000 3.031089e+000 3.000000e+000
         vertex 1.750000e+000 3.031089e+000 0.000000e+000
      endloop
   endfacet
   facet normal 6.801728e-001 7.330518e-001 0.000000e+000
      outer loop
         vertex 2.182214e+000 2.736410e+000 3.000000e+000
         vertex 2.565681e+000 2.380605e+000 3.000000e+000
         vertex 2.565681e+000 2.380605e+000 0.000000e+000
      endloop
   endfacet
   facet normal 8.660253e-001 5.000001e-001 0.000000e+000
      outer loop
         vertex 2.891836e+000 1.971620e+000 3.000000e+000
         vertex 3.153391e+000 1.518593e+000 3.000000e+000
         vertex 3.153391e+000 1.518593e+000 0.000000e+000
      endloop
   endfacet
   facet normal 9.749279e-001 2.225210e-001 0.000000e+000
      outer loop
         vertex 3.344505e+000 1.031643e+000 3.000000e+000
         vertex 3.460908e+000 5.216479e-001 3.000000e+000
         vertex 3.460908e+000 5.216479e-001 0.000000e+000
      endloop
   endfacet
   facet normal 9.972038e-001 7.473001e-002 -0.000000e+000
      outer loop
         vertex 3.500000e+000 0.000000e+000 3.000000e+000
         vertex 3.460908e+000 5.216479e-001 0.000000e+000
         vertex 3.460908e+000 5.216479e-001 3.000000e+000
      endloop
   endfacet
   facet normal 5.633201e-001 8.262388e-001 0.000000e+000
      outer loop
         vertex 2.182214e+000 2.736410e+000 0.000000e+000
         vertex 1.750000e+000 3.031089e+000 3.000000e+000
         vertex 2.182214e+000 2.736410e+000 3.000000e+000
      endloop
   endfacet
   facet normal -2.947552e-001 9.555728e-001 0.000000e+000
      outer loop
         vertex -7.788233e-001 3.412248e+000 0.000000e+000
         vertex -1.278694e+000 3.258058e+000 3.000000e+000
         vertex -7.788233e-001 3.412248e+000 3.000000e+000
      endloop
   endfacet
   facet normal -9.308738e-001 3.653409e-001 0.000000e+000
      outer loop
         vertex -3.153391e+000 1.518593e+000 0.000000e+000
         vertex -3.344505e+000 1.031643e+000 3.000000e+000
         vertex -3.153391e+000 1.518593e+000 3.000000e+000
      endloop
   endfacet
   facet normal -8.660253e-001 -5.000001e-001 0.000000e+000
      outer loop
         vertex -3.153391e+000 -1.518593e+000 0.000000e+000
         vertex -2.891836e+000 -1.971620e+000 3.000000e+000
         vertex -3.153391e+000 -1.518593e+000 3.000000e+000
      endloop
   endfacet
   facet normal -1.490425e-001 -9.888308e-001 0.000000e+000
      outer loop
         vertex -7.788233e-001 -3.412248e+000 0.000000e+000
         vertex -2.615553e-001 -3.490213e+000 3.000000e+000
         vertex -7.788233e-001 -3.412248e+000 3.000000e+000
      endloop
   endfacet
   facet normal 6.801728e-001 -7.330518e-001 0.000000e+000
      outer loop
         vertex 2.182214e+000 -2.736410e+000 0.000000e+000
         vertex 2.565681e+000 -2.380605e+000 3.000000e+000
         vertex 2.182214e+000 -2.736410e+000 3.000000e+000
      endloop
   endfacet
   facet normal 9.972038e-001 -7.473001e-002 0.000000e+000
      outer loop
         vertex 3.460908e+000 -5.216479e-001 3.000000e+000
         vertex 3.460908e+000 -5.216479e-001 0.000000e+000
         vertex 3.500000e+000 0.000000e+000 3.000000e+000
      endloop
   endfacet
   facet normal 5.633201e-001 -8.262388e-001 0.000000e+000
      outer loop
         vertex 2.182214e+000 -2.736410e+000 3.000000e+000
         vertex 1.750000e+000 -3.031089e+000 0.000000e+000
         vertex 2.182214e+000 -2.736410e+000 0.000000e+000
      endloop
   endfacet
   facet normal -2.947552e-001 -9.555728e-001 0.000000e+000
      outer loop
         vertex -7.788233e-001 -3.412248e+000 3.000000e+000
         vertex -1.278694e+000 -3.258058e+000 0.000000e+000
         vertex -7.788233e-001 -3.412248e+000 0.000000e+000
      endloop
   endfacet
   facet normal -9.308738e-001 -3.653409e-001 0.000000e+000
      outer loop
         vertex -3.153391e+000 -1.518593e+000 3.000000e+000
         vertex -3.344505e+000 -1.031643e+000 0.000000e+000
         vertex -3.153391e+000 -1.518593e+000 0.000000e+000
      endloop
   endfacet
   facet normal -8.660253e-001 5.000001e-001 0.000000e+000
      outer loop
         vertex -3.153391e+000 1.518593e+000 3.000000e+000
         vertex -2.891836e+000 1.971620e+000 0.000000e+000
         vertex -3.153391e+000 1.518593e+000 0.000000e+000
      endloop
   endfacet
   facet normal -1.490425e-001 9.888308e-001 0.000000e+000
      outer loop
         vertex -7.788233e-001 3.412248e+000 3.000000e+000
         vertex -2.615553e-001 3.490213e+000 0.000000e+000
         vertex -7.788233e-001 3.412248e+000 0.000000e+000
      endloop
   endfacet
   facet normal 6.801728e-001 7.330518e-001 0.000000e+000
      outer loop
         vertex 2.182214e+000 2.736410e+000 3.000000e+000
         vertex 2.565681e+000 2.380605e+000 0.000000e+000
         vertex 2.182214e+000 2.736410e+000 0.000000e+000
      endloop
   endfacet
   facet normal 9.749279e-001 2.225210e-001 -0.000000e+000
      outer loop
         vertex 3.460908e+000 5.216479e-001 0.000000e+000
         vertex 3.344505e+000 1.031643e+000 0.000000e+000
         vertex 3.344505e+000 1.031643e+000 3.000000e+000
      endloop
   endfacet
   facet normal 4.338838e-001 9.009689e-001 -0.000000e+000
      outer loop
         vertex 1.750000e+000 3.031089e+000 0.000000e+000
         vertex 1.278694e+000 3.258058e+000 0.000000e+000
         vertex 1.278694e+000 3.258058e+000 3.000000e+000
      endloop
   endfacet
   facet normal -4.338838e-001 9.009689e-001 0.000000e+000
      outer loop
         vertex -1.278694e+000 3.258058e+000 0.000000e+000
         vertex -1.750000e+000 3.031089e+000 0.000000e+000
         vertex -1.750000e+000 3.031089e+000 3.000000e+000
      endloop
   endfacet
   facet normal -9.749279e-001 2.225210e-001 0.000000e+000
      outer loop
         vertex -3.344505e+000 1.031643e+000 0.000000e+000
         vertex -3.460908e+000 5.216479e-001 0.000000e+000
         vertex -3.460908e+000 5.216479e-001 3.000000e+000
      endloop
   endfacet
   facet normal -7.818314e-001 -6.234900e-001 0.000000e+000
      outer loop
         vertex -2.891836e+000 -1.971620e+000 0.000000e+000
         vertex -2.565681e+000 -2.380605e+000 0.000000e+000
         vertex -2.565681e+000 -2.380605e+000 3.000000e+000
      endloop
   endfacet
   facet normal 0.000000e+000 -1.000000e+000 0.000000e+000
      outer loop
         vertex -2.615553e-001 -3.490213e+000 0.000000e+000
         vertex 2.615553e-001 -3.490213e+000 0.000000e+000
         vertex 2.615553e-001 -3.490213e+000 3.000000e+000
      endloop
   endfacet
   facet normal 7.818314e-001 -6.234900e-001 0.000000e+000
      outer loop
         vertex 2.565681e+000 -2.380605e+000 0.000000e+000
         vertex 2.891836e+000 -1.971620e+000 0.000000e+000
         vertex 2.891836e+000 -1.971620e+000 3.000000e+000
      endloop
   endfacet
   facet normal 9.749279e-001 -2.225210e-001 0.000000e+000
      outer loop
         vertex 3.460908e+000 -5.216479e-001 3.000000e+000
         vertex 3.344505e+000 -1.031643e+000 3.000000e+000
         vertex 3.344505e+000 -1.031643e+000 0.000000e+000
      endloop
   endfacet
   facet normal 4.338838e-001 -9.009689e-001 0.000000e+000
      outer loop
         vertex 1.750000e+000 -3.031089e+000 3.000000e+000
         vertex 1.278694e+000 -3.258058e+000 3.000000e+000
         vertex 1.278694e+000 -3.258058e+000 0.000000e+000
      endloop
   endfacet
   facet normal -4.338838e-001 -9.009689e-001 -0.000000e+000
      outer loop
         vertex -1.278694e+000 -3.258058e+000 3.000000e+000
         vertex -1.750000e+000 -3.031089e+000 3.000000e+000
         vertex -1.750000e+000 -3.031089e+000 0.000000e+000
      endloop
   endfacet
   facet normal -9.749279e-001 -2.225210e-001 -0.000000e+000
      outer loop
         vertex -3.344505e+000 -1.031643e+000 3.000000e+000
         vertex -3.460908e+000 -5.216479e-001 3.000000e+000
         vertex -3.460908e+000 -5.216479e-001 0.000000e+000
      endloop
   endfacet
   facet normal -7.818314e-001 6.234900e-001 0.000000e+000
      outer loop
         vertex -2.891836e+000 1.971620e+000 3.000000e+000
         vertex -2.565681e+000 2.380605e+000 3.000000e+000
         vertex -2.565681e+000 2.380605e+000 0.000000e+000
      endloop
   endfacet
   facet normal 0.000000e+000 1.000000e+000 0.000000e+000
      outer loop
         vertex -2.615553e-001 3.490213e+000 3.000000e+000
         vertex 2.615553e-001 3.490213e+000 3.000000e+000
         vertex 2.615553e-001 3.490213e+000 0.000000e+000
      endloop
   endfacet
   facet normal 7.818314e-001 6.234900e-001 0.000000e+000
      outer loop
         vertex 2.565681e+000 2.380605e+000 3.000000e+000
         vertex 2.891836e+000 1.971620e+000 3.000000e+000
         vertex 2.891836e+000 1.971620e+000 0.000000e+000
      endloop
   endfacet
   facet normal 9.308738e-001 3.653409e-001 0.000000e+000
      outer loop
         vertex 3.344505e+000 1.031643e+000 0.000000e+000
         vertex 3.153391e+000 1.518593e+000 3.000000e+000
         vertex 3.344505e+000 1.031643e+000 3.000000e+000
      endloop
   endfacet
   facet normal -9.972038e-001 7.473001e-002 0.000000e+000
      outer loop
         vertex -3.460908e+000 5.216479e-001 0.000000e+000
         vertex -3.500000e+000 -1.902842e-015 3.000000e+000
         vertex -3.460908e+000 5.216479e-001 3.000000e+000
      endloop
   endfacet
   facet normal 8.660253e-001 -5.000001e-001 0.000000e+000
      outer loop
         vertex 2.891836e+000 -1.971620e+000 0.000000e+000
         vertex 3.153391e+000 -1.518593e+000 3.000000e+000
         vertex 2.891836e+000 -1.971620e+000 3.000000e+000
      endloop
   endfacet
   facet normal -5.633201e-001 -8.262388e-001 0.000000e+000
      outer loop
         vertex -1.750000e+000 -3.031089e+000 3.000000e+000
         vertex -2.182214e+000 -2.736410e+000 0.000000e+000
         vertex -1.750000e+000 -3.031089e+000 0.000000e+000
      endloop
   endfacet
   facet normal 1.490425e-001 9.888308e-001 0.000000e+000
      outer loop
         vertex 2.615553e-001 3.490213e+000 3.000000e+000
         vertex 7.788233e-001 3.412248e+000 0.000000e+000
         vertex 2.615553e-001 3.490213e+000 0.000000e+000
      endloop
   endfacet
   facet normal -5.633201e-001 8.262388e-001 0.000000e+000
      outer loop
         vertex -1.750000e+000 3.031089e+000 3.000000e+000
         vertex -1.750000e+000 3.031089e+000 0.000000e+000
         vertex -2.182214e+000 2.736410e+000 3.000000e+000
      endloop
   endfacet
   facet normal 2.947552e-001 -9.555728e-001 0.000000e+000
      outer loop
         vertex 1.278694e+000 -3.258058e+000 0.000000e+000
         vertex 1.278694e+000 -3.258058e+000 3.000000e+000
         vertex 7.788233e-001 -3.412248e+000 0.000000e+000
      endloop
   endfacet
   facet normal 8.660253e-001 5.000001e-001 -0.000000e+000
      outer loop
         vertex 3.153391e+000 1.518593e+000 0.000000e+000
         vertex 2.891836e+000 1.971620e+000 0.000000e+000
         vertex 2.891836e+000 1.971620e+000 3.000000e+000
      endloop
   endfacet
   facet normal -9.972038e-001 -7.473001e-002 0.000000e+000
      outer loop
         vertex -3.500000e+000 -1.902842e-015 0.000000e+000
         vertex -3.460908e+000 -5.216479e-001 0.000000e+000
         vertex -3.460908e+000 -5.216479e-001 3.000000e+000
      endloop
   endfacet
   facet normal 1.490425e-001 -9.888308e-001 0.000000e+000
      outer loop
         vertex 7.788233e-001 -3.412248e+000 3.000000e+000
         vertex 2.615553e-001 -3.490213e+000 3.000000e+000
         vertex 2.615553e-001 -3.490213e+000 0.000000e+000
      endloop
   endfacet
   facet normal 2.947552e-001 9.555728e-001 0.000000e+000
      outer loop
         vertex 7.788233e-001 3.412248e+000 3.000000e+000
         vertex 1.278694e+000 3.258058e+000 3.000000e+000
         vertex 1.278694e+000 3.258058e+000 0.000000e+000
      endloop
   endfacet
   facet normal 9.308738e-001 -3.653409e-001 0.000000e+000
      outer loop
         vertex 3.344505e+000 -1.031643e+000 3.000000e+000
         vertex 3.153391e+000 -1.518593e+000 0.000000e+000
         vertex 3.344505e+000 -1.031643e+000 0.000000e+000
      endloop
   endfacet
   facet normal -6.801728e-001 7.330518e-001 0.000000e+000
      outer loop
         vertex -2.565681e+000 2.380605e+000 0.000000e+000
         vertex -2.565681e+000 2.380605e+000 3.000000e+000
         vertex -2.182214e+000 2.736410e+000 0.000000e+000
      endloop
   endfacet
   facet normal -6.801728e-001 -7.330518e-001 -0.000000e+000
      outer loop
         vertex -2.182214e+000 -2.736410e+000 3.000000e+000
         vertex -2.565681e+000 -2.380605e+000 3.000000e+000
         vertex -2.565681e+000 -2.380605e+000 0.000000e+000
      endloop
   endfacet
endsolid
